<?xml version="1.0" encoding="UTF-8"?>
<svg width="79px" height="79px" viewBox="0 0 79 79" version="1.1" xmlns="http://www.w3.org/2000/svg" xmlns:xlink="http://www.w3.org/1999/xlink">
    <!-- Generator: Sketch 41.2 (35397) - http://www.bohemiancoding.com/sketch -->
    <title>Page 1</title>
    <desc>Created with Sketch.</desc>
    <defs></defs>
    <g id="Welcome" stroke="none" stroke-width="1" fill="none" fill-rule="evenodd" stroke-linecap="round" stroke-linejoin="round">
        <g id="Desktop-blue" transform="translate(-510.000000, -966.000000)" stroke="#404040">
            <g id="优势" transform="translate(0.000000, 654.761905)">
                <g id="Page-1" transform="translate(511.120954, 312.160850)">
                    <g id="Group-9" transform="translate(0.476617, 0.117248)" stroke-width="1.30952381">
                        <polyline id="Stroke-1" points="53.0579322 15.0043384 38.5640032 0.359321707 24.0767468 14.8465781"></polyline>
                        <polyline id="Stroke-3" points="61.6503871 53.8502607 76.5775612 38.9230866 61.9935515 24.1798868"></polyline>
                        <polyline id="Stroke-5" points="23.1485825 62.0719074 38.2888044 77.2121293 53.6668584 61.8335988"></polyline>
                        <polyline id="Stroke-7" points="14.3059989 24.617326 -0.00014298516 38.9234679 14.6887225 53.6118567"></polyline>
                    </g>
                    <polyline id="Stroke-10" stroke-width="1.30952381" points="32.4501007 11.1916868 11.2406354 11.0377394 11.2406354 32.8696669"></polyline>
                    <polyline id="Stroke-11" stroke-width="1.30952381" points="66.0516133 32.3930973 66.0516133 11.590663 44.1272221 11.3132718"></polyline>
                    <polyline id="Stroke-12" stroke-width="1.30952381" points="43.6506049 65.7563013 65.5749961 65.7563013 65.5749961 43.3552929"></polyline>
                    <polyline id="Stroke-13" stroke-width="1.30952381" points="11.2406354 44.3085273 11.2406354 66.2329185 32.2117921 66.2329185"></polyline>
                    <polyline id="Stroke-14" stroke-width="0.654761905" points="49.3700113 57.8921175 57.7765855 57.8921175 57.8366393 50.0298402"></polyline>
                    <polyline id="Stroke-15" stroke-width="0.654761905" points="19.5814364 50.0279337 19.5814364 57.8921175 27.4456201 57.8921175"></polyline>
                    <polyline id="Stroke-16" stroke-width="0.654761905" points="26.9690029 19.2861243 19.5814364 19.2861243 19.5814364 27.1503081"></polyline>
                    <polyline id="Stroke-17" stroke-width="0.654761905" points="57.993208 27.8647573 58.0508787 19.7627415 48.8936324 19.7627415"></polyline>
                    <polyline id="Stroke-18" stroke-width="0.654761905" points="25.0866986 33.5292097 19.6442068 38.9717015 25.2611405 44.5886352"></polyline>
                    <polyline id="Stroke-19" stroke-width="0.654761905" points="43.9278055 24.8108326 38.9028304 19.712935 32.7921212 25.8241208"></polyline>
                    <polyline id="Stroke-20" stroke-width="0.654761905" points="52.2305724 44.6273366 57.8861121 38.9717969 52.5246452 33.5321648"></polyline>
                    <polyline id="Stroke-21" stroke-width="0.654761905" points="32.726777 52.0540811 38.7655169 58.092821 43.8896285 52.9682329"></polyline>
                    <polygon id="Stroke-22" stroke-width="1.30952381" points="47.9733323 30.0100113 28.8752811 30.0100113 28.8752811 48.1214649 47.8413093 48.1214649"></polygon>
                    <path d="M11.2406354,11.0379301 L18.1053529,17.9026476" id="Stroke-23" stroke-width="0.654761905"></path>
                    <path d="M19.819745,19.6170397 L26.6844625,26.4817572" id="Stroke-24" stroke-width="0.654761905"></path>
                    <path d="M66.0516133,11.5907107 L59.5824881,18.0598359" id="Stroke-25" stroke-width="0.654761905"></path>
                    <path d="M57.9491209,19.6932031 L51.4799957,26.1623283" id="Stroke-26" stroke-width="0.654761905"></path>
                    <path d="M65.5749961,65.7563013 L59.3789725,59.5602777" id="Stroke-27" stroke-width="0.654761905"></path>
                    <path d="M57.9491209,58.1304261 L51.7530973,51.9344025" id="Stroke-28" stroke-width="0.654761905"></path>
                    <path d="M11.2406354,66.2329185 L18.1515848,59.3219691" id="Stroke-29" stroke-width="0.654761905"></path>
                    <path d="M19.819745,57.6538089 L26.7306943,50.7428595" id="Stroke-30" stroke-width="0.654761905"></path>
                    <g id="Group-35" transform="translate(0.000000, 0.117248)" stroke-width="0.654761905">
                        <path id="Stroke-31"></path>
                        <path id="Stroke-33"></path>
                    </g>
                    <g id="Group-41" transform="translate(38.605993, 19.735146)" stroke-width="0.654761905">
                        <path id="Stroke-36"></path>
                        <path id="Stroke-37"></path>
                        <path id="Stroke-39"></path>
                    </g>
                </g>
            </g>
        </g>
    </g>
</svg>