<?xml version="1.0" encoding="UTF-8"?>
<svg width="121px" height="59px" viewBox="0 0 121 59" version="1.1" xmlns="http://www.w3.org/2000/svg" xmlns:xlink="http://www.w3.org/1999/xlink">
    <!-- Generator: Sketch 41.2 (35397) - http://www.bohemiancoding.com/sketch -->
    <title>logo</title>
    <desc>Created with Sketch.</desc>
    <defs>
        <polygon id="path-1" points="59.9937053 58.6390137 59.9937053 0.23871485 0.000124888622 0.23871485 0.000124888622 58.6390137"></polygon>
    </defs>
    <g id="Welcome" stroke="none" stroke-width="1" fill="none" fill-rule="evenodd">
        <g id="Desktop-blue" transform="translate(-116.000000, -40.000000)">
            <g id="header" transform="translate(-93.000000, 10.000000)">
                <g id="logo" transform="translate(209.000000, 29.970030)">
                    <path d="M61.0721601,32.5805457 C61.2994574,32.5805457 61.5267547,32.7265194 61.5592258,32.9602437 L62.2735887,39.8796473 C62.3060597,40.2011222 62.4034729,40.4344306 62.533357,40.4344306 C62.6632412,40.4344306 62.7931254,40.2011222 62.8255964,39.8796473 L63.6049014,32.9602437 C63.6698435,32.7265194 63.7676729,32.5805457 63.9949702,32.5805457 L67.3070165,32.5805457 C67.4689554,32.5805457 67.664198,32.7265194 67.6962527,32.9016047 L68.5404998,39.8796473 C68.5733871,40.2011222 68.6708003,40.4344306 68.8002681,40.4344306 C68.9305686,40.4344306 69.0600365,40.2011222 69.0929238,39.8796473 L69.7423446,32.9307163 C69.7743994,32.7265194 69.9046999,32.5805457 70.0995261,32.5805457 L75.3598349,32.5805457 C75.6849616,32.5805457 75.7819584,32.755631 75.7494874,32.9893553 L72.7296805,54.0403453 C72.6972095,54.3322928 72.5023832,54.4782665 72.307557,54.4782665 L67.5667848,54.4782665 C67.3719586,54.4782665 67.2091871,54.3322928 67.176716,54.1567916 L65.9428164,47.0914143 C65.9103454,46.8285784 65.8133486,46.6243815 65.6830481,46.6243815 C65.5535802,46.6243815 65.4557508,46.8581058 65.4232798,47.1205258 L64.2872096,54.1280959 C64.2218512,54.3322928 64.1244381,54.4782665 63.9296118,54.4782665 L59.1234813,54.4782665 C58.896184,54.4782665 58.7017741,54.3031812 58.669303,54.0989843 L55.5516667,32.9602437 C55.5191957,32.6974078 55.6819672,32.5805457 55.9092645,32.5805457 L61.0721601,32.5805457 Z" id="Fill-1" stroke="#F5F5F5" stroke-width="0.9" fill="#515151"></path>
                    <path d="M77.2096852,32.9600773 C77.2096852,32.7849921 77.4045114,32.5803793 77.632225,32.5803793 L89.1594449,32.5803793 C89.3542712,32.5803793 89.4841553,32.726353 89.4841553,32.9018542 L89.4841553,38.1573238 C89.4841553,38.3324091 89.3222164,38.4492713 89.1269739,38.4492713 L83.7043099,38.4492713 C83.5744257,38.4492713 83.4770126,38.536606 83.4770126,38.6534681 L83.4770126,40.2887064 C83.4770126,40.4051527 83.6068967,40.4929033 83.7043099,40.4929033 L89.1835901,40.4929033 C89.3134742,40.4929033 89.4108873,40.5806539 89.4108873,40.6971001 L89.4108873,46.0112088 C89.4108873,46.1571825 89.2810032,46.2740446 89.151119,46.2740446 L83.6068967,46.2740446 C83.4770126,46.2740446 83.3791832,46.3617952 83.3791832,46.5077689 L83.3791832,48.2303419 C83.3791832,48.3472041 83.4770126,48.4345388 83.5744257,48.4345388 L89.191916,48.4345388 C89.4192133,48.4345388 89.5495137,48.5805125 89.5495137,48.7264862 L89.5495137,54.1570411 C89.5495137,54.3325423 89.3867422,54.4781001 89.191916,54.4781001 L77.5668666,54.4781001 C77.3724567,54.4781001 77.2096852,54.3030148 77.2096852,54.098818 L77.2096852,32.9600773 Z" id="Fill-3" stroke="#F5F5F5" stroke-width="0.9" fill="#515151"></path>
                    <path d="M91.6592989,32.9600773 C91.6592989,32.7849921 91.8541251,32.5803793 92.0818387,32.5803793 L103.609059,32.5803793 C103.803885,32.5803793 103.933769,32.726353 103.933769,32.9018542 L103.933769,38.1573238 C103.933769,38.3324091 103.771414,38.4492713 103.576588,38.4492713 L98.1539235,38.4492713 C98.0240394,38.4492713 97.9266262,38.536606 97.9266262,38.6534681 L97.9266262,40.2887064 C97.9266262,40.4051527 98.0560941,40.4929033 98.1539235,40.4929033 L103.633204,40.4929033 C103.763088,40.4929033 103.860501,40.5806539 103.860501,40.6971001 L103.860501,46.0112088 C103.860501,46.1571825 103.730617,46.2740446 103.600733,46.2740446 L98.0560941,46.2740446 C97.9266262,46.2740446 97.8287968,46.3617952 97.8287968,46.5077689 L97.8287968,48.2303419 C97.8287968,48.3472041 97.9266262,48.4345388 98.0240394,48.4345388 L103.64153,48.4345388 C103.868827,48.4345388 103.998711,48.5805125 103.998711,48.7264862 L103.998711,54.1570411 C103.998711,54.3325423 103.836356,54.4781001 103.64153,54.4781001 L92.0164803,54.4781001 C91.8220704,54.4781001 91.6592989,54.3030148 91.6592989,54.098818 L91.6592989,32.9600773 Z" id="Fill-5" stroke="#F5F5F5" stroke-width="0.9" fill="#515151"></path>
                    <path d="M109.194119,43.5002113 C109.22659,43.4419882 109.258645,43.3251261 109.258645,43.266487 C109.258645,43.2082639 109.22659,43.0622902 109.194119,42.9745396 L105.492004,32.9019374 C105.427062,32.7559637 105.492004,32.5804625 105.686831,32.5804625 L111.629448,32.5804625 C111.759332,32.5804625 111.856745,32.6973247 111.889216,32.8141868 L112.63605,35.8505233 C112.668521,35.9673854 112.733463,36.055136 112.765934,36.055136 C112.830876,36.055136 112.895818,35.9673854 112.928289,35.8505233 L113.675123,32.8141868 C113.707594,32.6682131 113.805007,32.5804625 113.934892,32.5804625 L119.877092,32.5804625 C120.007393,32.5804625 120.137277,32.6682131 120.137277,32.8141868 C120.137277,32.8724099 120.137277,32.9306331 120.104806,33.0183837 L116.402691,42.8580933 C116.337749,42.9745396 116.305278,43.1791523 116.305278,43.2373755 C116.305278,43.2960145 116.337749,43.4710998 116.37022,43.5588503 L120.137277,54.1862359 C120.201803,54.3908486 120.137277,54.4781833 119.942034,54.4781833 L113.902837,54.4781833 C113.805007,54.4781833 113.707594,54.3908486 113.675123,54.2739864 L112.928289,50.6828667 C112.895818,50.5660045 112.830876,50.5077814 112.798405,50.5077814 C112.733463,50.5077814 112.700992,50.5660045 112.668521,50.6828667 L111.921687,54.2739864 C111.889216,54.3908486 111.759332,54.4781833 111.629448,54.4781833 L105.65436,54.4781833 C105.524892,54.4781833 105.459533,54.4195443 105.459533,54.3322096 C105.459533,54.2739864 105.459533,54.244459 105.492004,54.1862359 L109.194119,43.5002113 Z" id="Fill-7" stroke="#F5F5F5" stroke-width="0.9" fill="#515151"></path>
                    <g id="Group-11" transform="translate(0.000000, 0.177165)">
                        <mask id="mask-2" fill="white">
                            <use xlink:href="#path-1"></use>
                        </mask>
                        <g id="Clip-10"></g>
                        <path d="M34.9298075,21.861664 C33.4190715,21.861664 32.1943304,20.6381464 32.1943304,19.1289196 C32.1943304,17.6192769 33.4190715,16.3957594 34.9298075,16.3957594 C36.4405436,16.3957594 37.6652847,17.6192769 37.6652847,19.1289196 C37.6652847,20.6381464 36.4405436,21.861664 34.9298075,21.861664 M55.5522495,11.5520105 C54.6988439,10.5118958 53.7459438,9.55620461 52.7072867,8.70074041 C51.7964323,7.95007786 50.8185544,7.27801654 49.7861418,6.69121052 C34.9893378,-4.10335856 14.2902974,-1.03499939 3.25555499,13.5066443 C7.30277896,8.27903857 13.3902667,5.50304271 19.5689232,5.47185174 C8.02921445,10.7081909 0.000124888622,22.3133092 0.000124888622,35.7998665 C0.000124888622,39.5685668 0.837294957,43.4270971 1.99251472,46.8048706 C3.65436599,45.2968914 5.16551833,41.321499 6.94101825,39.9432742 C7.80899418,44.2122776 9.49374171,50.479998 11.8262449,53.9862783 C13.9938951,49.603324 15.7564898,46.5407871 18.9827793,42.9313687 C19.8619952,49.2306959 23.4883445,53.9821195 27.3807066,58.6391385 C27.361557,58.1758487 27.3494844,57.7104795 27.3494844,57.2421992 C27.3494844,52.1705483 28.4880524,47.3654762 30.5183251,43.0627866 C30.6740196,43.1397243 30.8313792,43.2145826 30.9895715,43.2877774 C33.5152357,48.0333787 37.152825,52.0986011 41.5605608,55.1295312 C40.0735536,52.0366351 39.2405465,48.677992 38.7717979,45.1455113 C38.580302,43.7007458 38.4783096,42.2272846 38.4783096,40.7301183 C38.4783096,37.5070519 38.3771498,34.3921143 39.2322206,31.4443602 C39.6306153,30.0702942 39.7421825,28.7328256 40.3070953,27.4381926 C40.5268993,26.9345625 40.7583596,26.4375865 41.0023087,25.9472645 C42.0555361,23.8266948 43.1491441,21.8005297 44.7485511,19.8221908 C45.052863,19.4462357 45.5515849,19.0765188 45.8712998,18.7138719 C47.3054375,17.301545 50.0213487,16.4290297 52.1939945,16.4290297 C56.3169842,16.4290297 59.5998898,19.3480881 59.9937053,23.3804561 C59.8484182,18.6855921 58.3360169,14.9460033 55.5522495,11.5520105" id="Fill-9" fill="#00B4FF" mask="url(#mask-2)"></path>
                        <path d="M35.9747923,17.4398249 C36.9085429,17.4398249 37.6653679,18.1958939 37.6653679,19.1287117 C37.6653679,20.0615295 36.9085429,20.8175985 35.9747923,20.8175985 C35.0410417,20.8175985 34.2842166,20.0615295 34.2842166,19.1287117 C34.2842166,18.1958939 35.0410417,17.4398249 35.9747923,17.4398249" id="Fill-12" fill="#515151" mask="url(#mask-2)"></path>
                    </g>
                </g>
            </g>
        </g>
    </g>
</svg>